Normalized EMG Linear Envelopes
nRows=54
nColumns=17

endheader
time	        VM	        VL	        RF	       GRA	        TA	   ADDLONG	   SEMIMEM	      BFLH	        GM	        GL	       TFL	   GLUTMAX	   GLUTMED	      PIRI	    OBTINT	        QF	
2.3375	  0.019287	  0.000000	  0.008330	  0.168126	  0.016921	  0.049432	  0.287900	  0.176289	  0.233168	  0.097710	  0.025209	  0.099341	  0.257688	  0.330494	  1.098893	  0.067457	
2.338	  0.018921	  0.000000	  0.007970	  0.168079	  0.016537	  0.049162	  0.290604	  0.178447	  0.233867	  0.097295	  0.024427	  0.099410	  0.255494	  0.328012	  1.102991	  0.067593	
2.3385	  0.018559	  0.000000	  0.007622	  0.168038	  0.016172	  0.048892	  0.293273	  0.180616	  0.234534	  0.096873	  0.023662	  0.099464	  0.253284	  0.325519	  1.106974	  0.067737	
2.339	  0.018199	  0.000000	  0.007284	  0.168002	  0.015824	  0.048622	  0.295905	  0.182796	  0.235170	  0.096443	  0.022913	  0.099504	  0.251059	  0.323015	  1.110845	  0.067892	
2.3395	  0.017843	  0.000000	  0.006957	  0.167971	  0.015494	  0.048352	  0.298500	  0.184986	  0.235775	  0.096006	  0.022179	  0.099528	  0.248821	  0.320500	  1.114606	  0.068057	
2.34	  0.017490	  0.000000	  0.006640	  0.167945	  0.015181	  0.048083	  0.301059	  0.187188	  0.236348	  0.095561	  0.021462	  0.099536	  0.246570	  0.317975	  1.118259	  0.068232	
2.3405	  0.017140	  0.000000	  0.006333	  0.167924	  0.014886	  0.047814	  0.303579	  0.189399	  0.236889	  0.095108	  0.020760	  0.099528	  0.244307	  0.315440	  1.121807	  0.068420	
2.341	  0.016795	  0.000000	  0.006037	  0.167908	  0.014610	  0.047544	  0.306062	  0.191621	  0.237399	  0.094647	  0.020073	  0.099505	  0.242032	  0.312895	  1.125251	  0.068620	
2.3415	  0.016452	  0.000000	  0.005750	  0.167896	  0.014351	  0.047275	  0.308505	  0.193852	  0.237877	  0.094178	  0.019402	  0.099464	  0.239748	  0.310341	  1.128593	  0.068832	
2.342	  0.016114	  0.000000	  0.005473	  0.167888	  0.014111	  0.047006	  0.310909	  0.196093	  0.238323	  0.093701	  0.018747	  0.099407	  0.237454	  0.307779	  1.131834	  0.069059	
2.3425	  0.015780	  0.000000	  0.005205	  0.167885	  0.013888	  0.046737	  0.313272	  0.198342	  0.238739	  0.093216	  0.018107	  0.099332	  0.235150	  0.305209	  1.134976	  0.069299	
2.343	  0.015449	  0.000000	  0.004947	  0.167885	  0.013684	  0.046468	  0.315595	  0.200600	  0.239124	  0.092723	  0.017482	  0.099240	  0.232839	  0.302630	  1.138019	  0.069555	
2.3435	  0.015123	  0.000000	  0.004697	  0.167889	  0.013498	  0.046199	  0.317876	  0.202865	  0.239479	  0.092222	  0.016871	  0.099130	  0.230519	  0.300045	  1.140965	  0.069826	
2.344	  0.014801	  0.000000	  0.004456	  0.167897	  0.013331	  0.045929	  0.320115	  0.205139	  0.239805	  0.091712	  0.016276	  0.099001	  0.228192	  0.297453	  1.143812	  0.070114	
2.3445	  0.014484	  0.000000	  0.004224	  0.167908	  0.013182	  0.045660	  0.322312	  0.207420	  0.240101	  0.091194	  0.015695	  0.098855	  0.225857	  0.294854	  1.146562	  0.070418	
2.345	  0.014171	  0.000000	  0.004001	  0.167921	  0.013051	  0.045390	  0.324464	  0.209707	  0.240368	  0.090668	  0.015129	  0.098690	  0.223516	  0.292249	  1.149213	  0.070741	
2.3455	  0.013862	  0.000000	  0.003785	  0.167938	  0.012940	  0.045119	  0.326573	  0.212001	  0.240606	  0.090133	  0.014578	  0.098507	  0.221169	  0.289637	  1.151766	  0.071081	
2.346	  0.013558	  0.000000	  0.003578	  0.167956	  0.012846	  0.044849	  0.328637	  0.214300	  0.240817	  0.089589	  0.014041	  0.098306	  0.218815	  0.287020	  1.154219	  0.071441	
2.3465	  0.013259	  0.000000	  0.003378	  0.167978	  0.012772	  0.044578	  0.330658	  0.216604	  0.240999	  0.089037	  0.013518	  0.098088	  0.216456	  0.284396	  1.156570	  0.071821	
2.347	  0.012965	  0.000000	  0.003187	  0.168002	  0.012716	  0.044306	  0.332634	  0.218913	  0.241153	  0.088476	  0.013008	  0.097852	  0.214092	  0.281768	  1.158819	  0.072221	
2.3475	  0.012677	  0.000000	  0.003002	  0.168028	  0.012679	  0.044035	  0.334567	  0.221227	  0.241279	  0.087907	  0.012513	  0.097599	  0.211723	  0.279134	  1.160964	  0.072642	
2.348	  0.012393	  0.000000	  0.002825	  0.168057	  0.012661	  0.043763	  0.336457	  0.223543	  0.241378	  0.087329	  0.012031	  0.097329	  0.209350	  0.276497	  1.163003	  0.073085	
2.3485	  0.012114	  0.000000	  0.002656	  0.168088	  0.012662	  0.043491	  0.338305	  0.225863	  0.241448	  0.086743	  0.011563	  0.097043	  0.206972	  0.273855	  1.164932	  0.073551	
2.349	  0.011841	  0.000000	  0.002493	  0.168122	  0.012682	  0.043219	  0.340112	  0.228184	  0.241491	  0.086149	  0.011109	  0.096742	  0.204591	  0.271210	  1.166751	  0.074039	
2.3495	  0.011574	  0.000000	  0.002337	  0.168158	  0.012722	  0.042947	  0.341879	  0.230507	  0.241506	  0.085547	  0.010667	  0.096425	  0.202207	  0.268562	  1.168455	  0.074550	
2.35	  0.011312	  0.000000	  0.002188	  0.168197	  0.012781	  0.042674	  0.343605	  0.232831	  0.241494	  0.084936	  0.010238	  0.096093	  0.199821	  0.265913	  1.170042	  0.075086	
2.3505	  0.011057	  0.000000	  0.002045	  0.168238	  0.012859	  0.042402	  0.345293	  0.235154	  0.241454	  0.084318	  0.009823	  0.095746	  0.197432	  0.263263	  1.171509	  0.075647	
2.351	  0.010807	  0.000000	  0.001909	  0.168282	  0.012956	  0.042129	  0.346943	  0.237476	  0.241387	  0.083692	  0.009419	  0.095386	  0.195043	  0.260614	  1.172851	  0.076232	
2.3515	  0.010563	  0.000000	  0.001779	  0.168329	  0.013073	  0.041856	  0.348557	  0.239796	  0.241293	  0.083057	  0.009029	  0.095011	  0.192652	  0.257965	  1.174064	  0.076843	
2.352	  0.010325	  0.000000	  0.001655	  0.168378	  0.013210	  0.041584	  0.350135	  0.242113	  0.241174	  0.082414	  0.008650	  0.094623	  0.190260	  0.255319	  1.175145	  0.077481	
2.3525	  0.010094	  0.000000	  0.001537	  0.168430	  0.013366	  0.041311	  0.351679	  0.244425	  0.241030	  0.081764	  0.008284	  0.094223	  0.187869	  0.252676	  1.176088	  0.078145	
2.353	  0.009869	  0.000000	  0.001424	  0.168485	  0.013542	  0.041038	  0.353189	  0.246733	  0.240862	  0.081105	  0.007930	  0.093809	  0.185477	  0.250037	  1.176890	  0.078836	
2.3535	  0.009651	  0.000000	  0.001317	  0.168543	  0.013738	  0.040766	  0.354666	  0.249035	  0.240670	  0.080438	  0.007587	  0.093384	  0.183087	  0.247404	  1.177545	  0.079554	
2.354	  0.009440	  0.000000	  0.001216	  0.168604	  0.013954	  0.040493	  0.356112	  0.251330	  0.240456	  0.079764	  0.007256	  0.092948	  0.180697	  0.244777	  1.178050	  0.080300	
2.3545	  0.009235	  0.000000	  0.001120	  0.168667	  0.014190	  0.040221	  0.357527	  0.253618	  0.240221	  0.079081	  0.006937	  0.092500	  0.178310	  0.242157	  1.178400	  0.081075	
2.355	  0.009038	  0.000000	  0.001029	  0.168733	  0.014445	  0.039949	  0.358913	  0.255898	  0.239966	  0.078391	  0.006628	  0.092042	  0.175925	  0.239545	  1.178590	  0.081878	
2.3555	  0.008847	  0.000000	  0.000943	  0.168801	  0.014722	  0.039677	  0.360270	  0.258169	  0.239691	  0.077693	  0.006331	  0.091574	  0.173543	  0.236941	  1.178618	  0.082711	
2.356	  0.008664	  0.000000	  0.000862	  0.168872	  0.015018	  0.039405	  0.361600	  0.260430	  0.239399	  0.076989	  0.006045	  0.091097	  0.171166	  0.234348	  1.178480	  0.083572	
2.3565	  0.008489	  0.000000	  0.000785	  0.168946	  0.015335	  0.039133	  0.362903	  0.262681	  0.239089	  0.076277	  0.005769	  0.090612	  0.168793	  0.231764	  1.178172	  0.084463	
2.357	  0.008321	  0.000000	  0.000714	  0.169022	  0.015672	  0.038862	  0.364181	  0.264921	  0.238764	  0.075559	  0.005504	  0.090118	  0.166426	  0.229191	  1.177693	  0.085385	
2.3575	  0.008161	  0.000000	  0.000647	  0.169101	  0.016030	  0.038591	  0.365435	  0.267148	  0.238424	  0.074834	  0.005249	  0.089618	  0.164065	  0.226630	  1.177041	  0.086336	
2.358	  0.008009	  0.000000	  0.000584	  0.169182	  0.016408	  0.038320	  0.366666	  0.269362	  0.238071	  0.074104	  0.005005	  0.089111	  0.161712	  0.224081	  1.176216	  0.087318	
2.3585	  0.007865	  0.000000	  0.000525	  0.169266	  0.016807	  0.038049	  0.367874	  0.271563	  0.237705	  0.073367	  0.004770	  0.088599	  0.159367	  0.221545	  1.175217	  0.088330	
2.359	  0.007729	  0.000000	  0.000471	  0.169353	  0.017227	  0.037779	  0.369060	  0.273749	  0.237328	  0.072624	  0.004545	  0.088083	  0.157031	  0.219024	  1.174045	  0.089374	
2.3595	  0.007602	  0.000000	  0.000421	  0.169442	  0.017668	  0.037508	  0.370226	  0.275920	  0.236940	  0.071877	  0.004330	  0.087563	  0.154705	  0.216517	  1.172701	  0.090449	
2.36	  0.007483	  0.000000	  0.000374	  0.169534	  0.018130	  0.037238	  0.371372	  0.278075	  0.236542	  0.071124	  0.004125	  0.087040	  0.152391	  0.214025	  1.171184	  0.091554	
2.3605	  0.007374	  0.000000	  0.000331	  0.169629	  0.018613	  0.036969	  0.372499	  0.280216	  0.236137	  0.070366	  0.003928	  0.086515	  0.150087	  0.211551	  1.169496	  0.092692	
2.361	  0.007273	  0.000000	  0.000292	  0.169726	  0.019117	  0.036699	  0.373607	  0.282341	  0.235723	  0.069605	  0.003741	  0.085988	  0.147796	  0.209095	  1.167639	  0.093861	
2.3615	  0.007182	  0.000000	  0.000257	  0.169827	  0.019642	  0.036430	  0.374698	  0.284451	  0.235303	  0.068839	  0.003562	  0.085462	  0.145519	  0.206658	  1.165614	  0.095061	
2.362	  0.007100	  0.000000	  0.000225	  0.169932	  0.020189	  0.036162	  0.375772	  0.286546	  0.234876	  0.068070	  0.003393	  0.084936	  0.143255	  0.204241	  1.163426	  0.096294	
2.3625	  0.007028	  0.000000	  0.000196	  0.170040	  0.020757	  0.035894	  0.376830	  0.288628	  0.234445	  0.067298	  0.003232	  0.084411	  0.141006	  0.201845	  1.161078	  0.097558	
2.363	  0.006966	  0.000000	  0.000171	  0.170153	  0.021347	  0.035627	  0.377872	  0.290696	  0.234009	  0.066524	  0.003079	  0.083888	  0.138773	  0.199472	  1.158574	  0.098854	
2.3635	  0.006914	  0.000000	  0.000149	  0.170270	  0.021958	  0.035361	  0.378899	  0.292752	  0.233570	  0.065748	  0.002935	  0.083368	  0.136555	  0.197123	  1.155920	  0.100183	
2.364	  0.006872	  0.000000	  0.000130	  0.170392	  0.022592	  0.035096	  0.379911	  0.294795	  0.233127	  0.064971	  0.002798	  0.082852	  0.134354	  0.194799	  1.153121	  0.101545	
